<svg width="169" height="41" viewBox="0 0 169 41" fill="none" xmlns="http://www.w3.org/2000/svg">
<path d="M63.2378 12.0045C62.4824 11.4185 61.6353 10.9879 60.6982 10.7073C59.7629 10.4285 58.8258 10.2891 57.8904 10.2891H51.6518C51.4365 10.2891 51.2477 10.3702 51.0853 10.5326C50.923 10.695 50.8418 10.8838 50.8418 11.0991V29.7354C50.8418 29.9525 50.923 30.1413 51.0853 30.3037C51.2477 30.4661 51.4365 30.5472 51.6518 30.5472H54.1367C54.3696 30.5472 54.5638 30.4661 54.7173 30.3037C54.8708 30.1413 54.9467 29.9525 54.9467 29.7354V24.3881H57.8904C58.8981 24.3881 59.8794 24.2487 60.8341 23.9698C61.7889 23.691 62.6307 23.2586 63.3595 22.6727C64.0884 22.0885 64.6743 21.3544 65.1155 20.472C65.5567 19.5896 65.7773 18.5448 65.7773 17.3377C65.7773 16.1323 65.5426 15.0876 65.0749 14.2052C64.6055 13.3245 63.9949 12.5904 63.2378 12.0045ZM61.1994 18.4477C61.0812 18.8078 60.88 19.1325 60.5923 19.4202C60.3047 19.7078 59.9217 19.9372 59.4452 20.1084C58.9687 20.2796 58.3599 20.3643 57.6222 20.3643H54.9485V14.2863H57.6486C58.3687 14.2863 58.967 14.3763 59.4452 14.5564C59.9217 14.7364 60.3047 14.9658 60.5923 15.2446C60.88 15.5235 61.083 15.8482 61.1994 16.217C61.3159 16.5859 61.3741 16.96 61.3741 17.3377C61.3741 17.7171 61.3159 18.086 61.1994 18.4477Z" fill="white"/>
<path d="M74.1352 9.07546C73.8916 8.84251 73.6181 8.6572 73.311 8.52131C73.0039 8.38542 72.6722 8.31836 72.3121 8.31836C71.9521 8.31836 71.615 8.38542 71.2991 8.52131C70.9832 8.65544 70.7044 8.84074 70.4609 9.07546C70.2173 9.31018 70.0285 9.58019 69.8944 9.8855C69.7585 10.1926 69.6914 10.5244 69.6914 10.8844C69.6914 11.6044 69.9473 12.2133 70.4609 12.7074C70.9744 13.2033 71.5903 13.4504 72.3104 13.4504C72.6704 13.4504 73.0039 13.3833 73.3093 13.2475C73.6146 13.1133 73.8899 12.9333 74.1334 12.7074C74.377 12.4815 74.5658 12.2133 74.7017 11.8974C74.8358 11.5832 74.9046 11.2444 74.9046 10.8844C74.9046 10.5244 74.8376 10.1908 74.7017 9.8855C74.5676 9.58019 74.3787 9.31018 74.1352 9.07546Z" fill="white"/>
<path d="M73.4735 15.9082H68.6927C68.4756 15.9082 68.2868 15.9894 68.1244 16.1517C67.962 16.3141 67.8809 16.5118 67.8809 16.7465V18.6913C67.8809 18.926 67.962 19.1201 68.1244 19.2719C68.2868 19.4255 68.4756 19.5013 68.6927 19.5013H70.3128V29.7372C70.3128 29.9543 70.3886 30.1431 70.5422 30.3055C70.6957 30.4678 70.8881 30.549 71.1228 30.549H73.4718C73.7065 30.549 73.9041 30.4678 74.0665 30.3055C74.2289 30.1431 74.31 29.9543 74.31 29.7372V16.7447C74.31 16.5118 74.2289 16.3123 74.0665 16.15C73.9059 15.9894 73.7082 15.9082 73.4735 15.9082Z" fill="white"/>
<path d="M88.7073 25.7929C88.5449 25.5758 88.3296 25.4682 88.0596 25.4682C87.8249 25.4682 87.6272 25.5494 87.4649 25.7117C87.1578 26.0188 86.7483 26.3241 86.2366 26.6294C85.723 26.9365 85.0612 27.0883 84.2512 27.0883C83.8188 27.0883 83.3952 26.9983 82.9823 26.8183C82.5675 26.6383 82.1987 26.4 81.8757 26.1018C81.551 25.8053 81.2898 25.4576 81.0922 25.0623C80.8927 24.667 80.7957 24.2522 80.7957 23.8199V22.4433C80.7957 22.1186 80.8627 21.778 80.9986 21.4162C81.1327 21.0562 81.3357 20.7226 81.6057 20.4173C81.8757 20.112 82.2216 19.8597 82.6452 19.662C83.067 19.4643 83.577 19.3655 84.1717 19.3655C85.1071 19.3655 85.9277 19.6179 86.6301 20.1226C86.7748 20.2303 86.9266 20.285 87.089 20.285C87.3237 20.285 87.5213 20.2038 87.6837 20.0414L89.3038 18.4213C89.4838 18.259 89.5685 18.056 89.5597 17.8142C89.5509 17.5707 89.4556 17.3677 89.2755 17.2072C88.5908 16.6318 87.8125 16.1942 86.9389 15.8977C86.0654 15.6012 85.16 15.4512 84.2247 15.4512C83.0546 15.4512 82.0187 15.6682 81.1186 16.0989C80.2186 16.5312 79.4579 17.0889 78.8367 17.7737C78.2155 18.4584 77.7479 19.2279 77.432 20.082C77.1161 20.9379 76.959 21.7886 76.959 22.6339V23.5516C76.959 24.704 77.1566 25.74 77.5537 26.6577C77.949 27.5754 78.4855 28.3554 79.1615 28.9943C79.8374 29.6331 80.6104 30.1202 81.4839 30.452C82.3575 30.7855 83.2805 30.9514 84.2529 30.9514C85.3683 30.9514 86.4183 30.7361 87.3996 30.3038C88.3808 29.8714 89.2138 29.2502 89.8985 28.4401C90.0432 28.2954 90.1138 28.1295 90.1138 27.9407C90.1138 27.7519 90.0591 27.5754 89.9515 27.4148L88.7073 25.7929Z" fill="white"/>
<path d="M110.914 30.5478H113.291C113.524 30.5478 113.718 30.4666 113.872 30.3043C114.025 30.1419 114.101 29.9531 114.101 29.736V22.4703C114.101 21.9479 114.196 21.4979 114.385 21.1202C114.574 20.7425 114.826 20.4266 115.14 20.1743C115.455 19.9219 115.806 19.7384 116.194 19.6201C116.581 19.5037 116.963 19.4454 117.341 19.4454C117.756 19.4454 118.16 19.5089 118.557 19.6343C118.952 19.7613 119.309 19.9537 119.625 20.2149C119.939 20.4761 120.191 20.7955 120.38 21.1732C120.569 21.5508 120.664 21.9832 120.664 22.4703V29.736C120.664 29.9531 120.745 30.1419 120.908 30.3043C121.07 30.4666 121.268 30.5478 121.503 30.5478H123.852C124.086 30.5478 124.284 30.4666 124.446 30.3043C124.609 30.1419 124.69 29.9531 124.69 29.736V22.9027C124.69 21.6249 124.478 20.5167 124.054 19.5813C123.631 18.646 123.073 17.8747 122.38 17.2712C121.686 16.6676 120.913 16.2176 120.057 15.9211C119.201 15.6246 118.342 15.4746 117.479 15.4746C116.596 15.4746 115.714 15.6281 114.832 15.9335C113.949 16.2405 113.157 16.7029 112.454 17.3241C111.752 17.9453 111.186 18.7324 110.753 19.6872C110.321 20.642 110.105 21.7661 110.105 23.0633V29.7342C110.105 29.9513 110.187 30.1401 110.349 30.3025C110.51 30.4666 110.698 30.5478 110.914 30.5478Z" fill="white"/>
<path d="M142.244 10.2906H129.82C129.604 10.2906 129.415 10.3717 129.253 10.5341C129.091 10.6965 129.01 10.8853 129.01 11.1006V23.9042L128.944 27.9809C127.711 36.189 117.623 35.8961 117.623 35.8961C117.623 35.8961 110.959 35.5025 106.552 29.3575L103.224 24.8202L100.834 21.4988L105.291 17.4751C105.578 17.2227 105.659 16.9174 105.534 16.5574C105.479 16.3774 105.363 16.2256 105.183 16.0985C105.003 15.9732 104.823 15.9097 104.643 15.9097H101.969C101.645 15.9097 101.375 16.0173 101.159 16.2344L96.3254 20.5017V10.1811C96.3254 9.94642 96.2478 9.75406 96.096 9.60052C95.9424 9.44875 95.7501 9.37109 95.5154 9.37109H93.1382C92.9229 9.37109 92.734 9.44875 92.5717 9.60052C92.4093 9.75406 92.3281 9.94818 92.3281 10.1811V29.7352C92.3281 29.9522 92.4093 30.1411 92.5717 30.3034C92.734 30.4658 92.9229 30.547 93.1382 30.547H95.5154C95.7501 30.547 95.9424 30.4658 96.096 30.3034C96.2495 30.1411 96.3254 29.9522 96.3254 29.7352V25.5755L97.9455 24.0896L99.5709 26.4473L102.373 30.6405C107.837 39.934 117.462 39.701 117.462 39.701C117.462 39.701 129.003 39.964 132.454 31.1947C132.952 29.9311 133.021 27.868 133.021 27.868L133.134 22.983H140.601C140.834 22.983 141.028 22.9018 141.181 22.7395C141.335 22.5771 141.411 22.3883 141.411 22.1712V19.6864C141.411 19.4693 141.335 19.2805 141.181 19.1181C141.028 18.9557 140.834 18.8746 140.601 18.8746H133.12V14.3955H142.249C142.482 14.3955 142.676 14.3143 142.83 14.1519C142.983 13.9896 143.059 13.7919 143.059 13.5572V11.1006C143.059 10.8659 142.983 10.6735 142.83 10.52C142.671 10.3664 142.477 10.2906 142.244 10.2906Z" fill="white"/>
<path d="M151.196 9.07546C150.952 8.84251 150.679 8.6572 150.372 8.52131C150.064 8.38542 149.733 8.31836 149.373 8.31836C149.013 8.31836 148.676 8.38542 148.36 8.52131C148.044 8.65544 147.765 8.84074 147.521 9.07546C147.278 9.31018 147.089 9.58019 146.955 9.8855C146.819 10.1926 146.752 10.5244 146.752 10.8844C146.752 11.6044 147.008 12.2133 147.521 12.7074C148.035 13.2033 148.651 13.4504 149.371 13.4504C149.731 13.4504 150.064 13.3833 150.37 13.2475C150.675 13.1133 150.95 12.9333 151.194 12.7074C151.438 12.4815 151.626 12.2133 151.762 11.8974C151.896 11.5832 151.965 11.2444 151.965 10.8844C151.965 10.5244 151.898 10.1908 151.762 9.8855C151.628 9.58019 151.439 9.31018 151.196 9.07546Z" fill="white"/>
<path d="M150.536 15.9082H145.755C145.538 15.9082 145.349 15.9894 145.187 16.1517C145.025 16.3141 144.943 16.5118 144.943 16.7465V18.6913C144.943 18.926 145.025 19.1201 145.187 19.2719C145.349 19.4255 145.538 19.5013 145.755 19.5013H147.375V29.7372C147.375 29.9543 147.451 30.1431 147.605 30.3055C147.758 30.4678 147.951 30.549 148.185 30.549H150.534C150.769 30.549 150.967 30.4678 151.129 30.3055C151.291 30.1431 151.373 29.9543 151.373 29.7372V16.7447C151.373 16.5118 151.291 16.3123 151.129 16.15C150.968 15.9894 150.771 15.9082 150.536 15.9082Z" fill="white"/>
<path d="M168.332 29.2499L163.659 22.6866L167.494 17.2034C167.584 17.0587 167.633 16.9157 167.642 16.771C167.651 16.6263 167.619 16.4869 167.547 16.3527C167.475 16.2169 167.376 16.1092 167.25 16.028C167.125 15.9468 166.98 15.9062 166.818 15.9062H164.171C163.756 15.9062 163.414 16.0951 163.144 16.4728L161.254 19.3088L159.205 16.448C158.97 16.088 158.636 15.908 158.206 15.908H155.477C155.135 15.908 154.892 16.0563 154.749 16.3545C154.604 16.651 154.622 16.9351 154.803 17.2051L158.531 22.4184L153.804 29.2517C153.624 29.5394 153.61 29.8288 153.764 30.1164C153.917 30.4041 154.156 30.5488 154.48 30.5488H157.128C157.578 30.5488 157.92 30.36 158.155 29.9823L160.906 25.7662L163.931 30.0335C164.183 30.3759 164.517 30.5471 164.93 30.5471H167.658C167.82 30.5471 167.963 30.5065 168.09 30.4253C168.216 30.3441 168.315 30.2365 168.387 30.1006C168.459 29.9664 168.491 29.8217 168.482 29.6682C168.472 29.5164 168.422 29.377 168.332 29.2499Z" fill="white"/>
<path d="M31.0976 0H9.52817C4.26553 0 0 4.26553 0 9.52817V31.0976C0 36.3602 4.26553 40.6258 9.52817 40.6258H31.0976C36.3602 40.6258 40.6258 36.3602 40.6258 31.0976V9.52817C40.6258 4.26553 36.3602 0 31.0976 0ZM29.8287 21.2518C28.6163 25.4802 25.0849 27.5539 21.6824 27.7357C21.4247 27.7657 21.1741 27.7586 20.9182 27.7515C19.5505 27.7145 18.1228 27.3721 16.8203 26.6909C16.4974 26.5232 14.6743 25.3285 14.6743 25.3285L13.4619 24.4972C13.4619 24.4972 14.3673 27.6774 15.7703 30.0775L15.8144 30.1817L16.3262 28.6586L17.6586 29.3946L17.6604 32.5236C17.6604 33.173 17.3427 33.5842 16.7462 33.5683L11.3847 33.5895C10.8041 33.5736 10.31 33.0883 10.3259 32.4706L10.317 9.64818C10.3329 9.06756 10.0894 7.84808 11.8436 7.59042C11.8436 7.59042 16.4656 6.7592 21.3524 6.91979L21.3506 6.92332C21.6559 6.92685 21.9577 6.9445 22.2559 6.9745C26.3856 7.41394 30.4358 10.6876 30.3352 16.9668C30.3352 16.9704 30.307 19.5823 29.8287 21.2518ZM20.8917 11.0318C18.4563 10.9647 15.7191 12.4613 15.6238 15.915L15.6097 16.4568C15.6609 17.9551 16.5097 19.4799 17.5051 20.7347C18.8375 22.4148 20.4294 23.6113 20.7117 23.6201C21.7477 23.6484 25.8667 19.9193 26.0061 16.598L26.0167 16.2027C26.1085 12.8831 23.5037 11.1041 20.8917 11.0318ZM20.8441 18.9487C19.2734 18.9469 17.9728 17.7027 17.9745 16.1338C17.9763 14.5949 19.2787 13.3225 20.8476 13.3243C22.3883 13.326 23.689 14.6002 23.6872 16.1391C23.6872 17.708 22.3848 18.9505 20.8441 18.9487Z" fill="white"/>
</svg>
